#!OML:ASF X:\für Bonn\!DataBase\2005_08_10_Bjorn_Final\c3d\bjorn.ASF
:FULLY-SPECIFIED
:DEGREES
188
root 10.3868 7.83657 0.237453 -251.65 85.6136 -240.293
lowerback 46.1834 -5.10618 10.2076
upperback 22.2159 2.7886 3.32743
thorax 5.22908 3.99101 -1.82996
lowerneck -6.172 -9.12072 4.73567
upperneck 8.77109 -12.3476 -2.28291
head 3.47594 -6.00205 -2.1196
rclavicle 8.90555e-014 3.49861e-014
rhumerus 21.4602 -17.2028 -73.4456
rradius 21.6543
rwrist 14.6743
rhand -50.7646 51.1312
rfingers 7.12502
rthumb -23.3228 22.524
lclavicle 8.90555e-014 3.49861e-014
lhumerus -8.44784 -44.526 80.4785
lradius 40.0698
lwrist -8.72729
lhand -22.4727 -12.1002
lfingers 7.12502
lthumb 3.95227 17.8429
rfemur -166.098 68.1908 79.4747
rtibia 208.056
rfoot -228.822 94.5805
rtoes -5.64545
lfemur -101.761 70.1941 -36.1529
ltibia 153.341
lfoot -35.4396 -28.469
ltoes -24.2622
189
root 10.3892 7.82955 0.232776 -252.437 85.6046 -241.134
lowerback 46.1632 -5.0498 10.0996
upperback 22.2154 2.79996 3.31851
thorax 5.22276 3.98307 -1.79667
lowerneck -6.14849 -9.09146 4.78632
upperneck 8.71929 -12.3135 -2.28244
head 3.45157 -5.98535 -2.12241
rclavicle -6.67916e-014 -6.04305e-014
rhumerus 21.541 -17.2291 -73.55
rradius 21.6185
rwrist 14.7084
rhand -50.7593 51.1993
rfingers 7.12502
rthumb -23.3177 22.5915
lclavicle -6.67916e-014 -6.04305e-014
lhumerus -8.52073 -44.4559 80.4358
lradius 39.9862
lwrist -8.66649
lhand -22.4749 -12.0323
lfingers 7.12502
lthumb 3.9502 17.9108
rfemur -166.378 68.2753 79.013
rtibia 208.004
rfoot -227.991 94.5578
rtoes -5.65612
lfemur -102.098 70.3274 -36.5105
ltibia 153.414
lfoot -35.5097 -28.3768
ltoes -24.4214
190
root 10.3918 7.82268 0.228371 -253.194 85.5443 -241.958
lowerback 46.0994 -4.98699 9.95519
upperback 22.2418 2.79921 3.28922
thorax 5.25102 3.9712 -1.76393
lowerneck -6.17333 -9.06809 4.87464
upperneck 8.67422 -12.2946 -2.27779
head 3.43618 -5.97501 -2.13402
rclavicle -4.13472e-014 -2.38542e-014
rhumerus 21.6275 -17.2332 -73.6661
rradius 21.6133
rwrist 14.7274
rhand -50.7709 51.26
rfingers 7.12502
rthumb -23.3289 22.6536
lclavicle -4.13472e-014 -2.38542e-014
lhumerus -8.50886 -44.4028 80.3159
lradius 39.8915
lwrist -8.64793
lhand -22.6325 -12.0242
lfingers 7.12502
lthumb 3.79799 17.9217
rfemur -166.741 68.3473 78.4053
rtibia 207.95
rfoot -226.055 94.4716
rtoes -5.87728
lfemur -102.324 70.2238 -36.8222
ltibia 153.463
lfoot -35.4121 -28.3452
ltoes -24.3578
191
root 10.3947 7.81526 0.223831 -254.283 85.5367 -243.083
lowerback 46.0673 -4.9231 9.83029
upperback 22.2672 2.81304 3.26308
thorax 5.27601 3.96819 -1.74016
lowerneck -6.22156 -9.04466 4.85653
upperneck 8.69762 -12.2704 -2.21715
head 3.4598 -5.96064 -2.11547
rclavicle -6.36111e-015 1.43125e-014
rhumerus 21.6936 -17.136 -73.683
rradius 21.5974
rwrist 14.5954
rhand -50.7006 51.2372
rfingers 7.12502
rthumb -23.2614 22.6222
lclavicle -6.36111e-015 1.43125e-014
lhumerus -8.50477 -44.3112 80.2204
lradius 39.8053
lwrist -8.58718
lhand -22.8339 -11.9997
lfingers 7.12502
lthumb 3.60347 17.9496
rfemur -166.85 68.413 78.0889
rtibia 207.892
rfoot -224.838 94.398
rtoes -6.07282
lfemur -102.674 70.5139 -37.2107
ltibia 153.538
lfoot -35.5888 -28.2376
ltoes -24.648
192
root 10.3976 7.80758 0.219434 -255.005 85.5369 -243.814
lowerback 46.0472 -4.86859 9.71733
upperback 22.2963 2.82695 3.25156
thorax 5.30379 3.9666 -1.7053
lowerneck -6.18693 -9.03075 4.88721
upperneck 8.6269 -12.2567 -2.18905
head 3.42898 -5.95414 -2.10528
rclavicle 9.22361e-014 5.40694e-014
rhumerus 21.7608 -17.0817 -73.7046
rradius 21.5736
rwrist 14.5549
rhand -50.7038 51.2754
rfingers 7.12502
rthumb -23.2645 22.6608
lclavicle 9.22361e-014 5.40694e-014
lhumerus -8.47932 -44.2851 80.1103
lradius 39.7228
lwrist -8.51213
lhand -23.0757 -12.0431
lfingers 7.12502
lthumb 3.37003 17.91
rfemur -167.256 68.4225 77.5162
rtibia 207.836
rfoot -222.08 94.2823
rtoes -6.35266
lfemur -102.899 70.7936 -37.4659
ltibia 153.605
lfoot -35.6501 -28.29
ltoes -24.5551
